# xmcd
#
# Track frame offsets:
#	150
#	17390
#	40151
#	59471
#	81349
#	97108
#	119550
#	140261
#	159523
#	181558
#	196514
#	221524
#	239463
#	262305
#	283049
#	303138
#
# Disc length: 4307 seconds
#
# Revision: 1
# Processed by: cddbd v1.5.1PL2 Copyright (c) Steve Scherf et al.
# Submitted via: audiograbber 1.81.02
#
DISCID=da10d110
DTITLE=Música Salsa (Variada) - Música Salsa (Variada)
DYEAR=1900
DGENRE=Salsa
TTITLE0=Dímelo - Marc Anthony
TTITLE1=La quiero a morir - DLG
TTITLE2=Tres gotas de agua bendita - Gloria Estefan
TTITLE3=Volveré - DLG
TTITLE4=No me dejes de querer - Gloria Estefan
TTITLE5=Juliana - DLG
TTITLE6=Cubanamé - Lucrecia
TTITLE7=Usted abusó -Celia Cruz y Willie Colón
TTITLE8=Acuyuyé - DLG
TTITLE9=Se sol a sol - Lucrecia
TTITLE10=Cuba qué lindos son tus paisajes! - Celia Cruz
TTITLE11=Déjame un beso - Salserín
TTITLE12=No me ames - Jennifer López y Marc Anthony
TTITLE13=La vida es un carnaval - Celia Cruz
TTITLE14=Bésame - Elvis Crespo
TTITLE15=unbekannt
EXTD=
EXTT0=
EXTT1=
EXTT2=
EXTT3=
EXTT4=
EXTT5=
EXTT6=
EXTT7=
EXTT8=
EXTT9=
EXTT10=
EXTT11=
EXTT12=
EXTT13=
EXTT14=
EXTT15=
PLAYORDER=
